<svg width="80" height="80" viewBox="0 0 32 32" xmlns="http://www.w3.org/2000/svg"><defs><clipPath id="a"><path d="M0 0h32v32H0z"/></clipPath></defs><g data-name="Group 2027" clip-path="url(#a)"><g data-name="Group 2026"><g data-name="Group 2025"><path data-name="Path 3768" d="M29.12-.022a1.54 1.54 0 0 0-1.521 1.3l-9.067 2.289V2.279a.615.615 0 0 0-.616-.615h-3.832a.615.615 0 0 0-.616.615v2.566L4.1 7.2a1.543 1.543 0 1 0 .3 1.193l9.068-2.289a.61.61 0 0 0 .4.569L7.974 20.314a1 1 0 0 0 .267 1.156 15.7 15.7 0 0 1 3.6 4.046h-.762a1 1 0 0 0-1 1v4.5a1 1 0 0 0 1 1h9.848a1 1 0 0 0 1-1v-4.5a1 1 0 0 0-1-1h-.762a15.7 15.7 0 0 1 3.6-4.046 1 1 0 0 0 .267-1.156L18.138 6.673a.61.61 0 0 0 .4-.572V4.826l9.37-2.365a1.544 1.544 0 1 0 1.218-2.488ZM14.7 2.889h2.6v2.6h-2.6Zm5.225 27.133h-7.848v-2.5h7.848Zm-1.979-4.5h-3.89a14.3 14.3 0 0 0-3.956-5.077l5.4-12.5v10.241a2.057 2.057 0 1 0 1 0V7.945l5.4 12.5a14.3 14.3 0 0 0-3.955 5.076Zm-1.945-6.4a1.057 1.057 0 1 1-1.057 1.057A1.06 1.06 0 0 1 16 19.117Z" fill="#211c84"/></g></g></g></svg>