<svg id="visual" viewBox="0 0 960 540" width="960" height="540" xmlns="http://www.w3.org/2000/svg" xmlns:xlink="http://www.w3.org/1999/xlink" version="1.1"><rect x="0" y="0" width="960" height="540" fill="#211C84"></rect><defs><linearGradient id="grad1_0" x1="43.8%" y1="0%" x2="100%" y2="100%"><stop offset="14.444444444444446%" stop-color="#4d55cc" stop-opacity="1"></stop><stop offset="85.55555555555554%" stop-color="#4d55cc" stop-opacity="1"></stop></linearGradient></defs><defs><linearGradient id="grad1_1" x1="43.8%" y1="0%" x2="100%" y2="100%"><stop offset="14.444444444444446%" stop-color="#4d55cc" stop-opacity="1"></stop><stop offset="85.55555555555554%" stop-color="#211c84" stop-opacity="1"></stop></linearGradient></defs><defs><linearGradient id="grad2_0" x1="0%" y1="0%" x2="56.3%" y2="100%"><stop offset="14.444444444444446%" stop-color="#4d55cc" stop-opacity="1"></stop><stop offset="85.55555555555554%" stop-color="#4d55cc" stop-opacity="1"></stop></linearGradient></defs><defs><linearGradient id="grad2_1" x1="0%" y1="0%" x2="56.3%" y2="100%"><stop offset="14.444444444444446%" stop-color="#211c84" stop-opacity="1"></stop><stop offset="85.55555555555554%" stop-color="#4d55cc" stop-opacity="1"></stop></linearGradient></defs><g transform="translate(960, 0)"><path d="M0 422C-61.5 432.7 -123.1 443.5 -175.7 424.1C-228.2 404.6 -271.9 355 -306.2 306.2C-340.5 257.4 -365.4 209.3 -382.5 158.4C-399.6 107.5 -408.8 53.8 -418 0L0 0Z" fill="#3838a7"></path><path d="M0 211C-30.8 216.4 -61.5 221.7 -87.8 212C-114.1 202.3 -135.9 177.5 -153.1 153.1C-170.2 128.7 -182.7 104.7 -191.2 79.2C-199.8 53.8 -204.4 26.9 -209 0L0 0Z" fill="#4d55cc"></path></g><g transform="translate(0, 540)"><path d="M0 -428C60.2 -435.5 120.5 -443 175.7 -424.1C230.8 -405.2 281 -359.9 309 -309C337 -258.1 342.8 -201.7 360.3 -149.2C377.8 -96.8 406.9 -48.4 436 0L0 0Z" fill="#3838a7"></path><path d="M0 -214C30.1 -217.7 60.2 -221.5 87.8 -212C115.4 -202.6 140.5 -179.9 154.5 -154.5C168.5 -129.1 171.4 -100.8 180.2 -74.6C188.9 -48.4 203.4 -24.2 218 0L0 0Z" fill="#4d55cc"></path></g></svg>