<svg width="80" height="80" viewBox="0 0 24 24" fill="none" xmlns="http://www.w3.org/2000/svg"><path d="M9 17.25v2.25a1.5 1.5 0 0 0 1.5 1.5h3a1.5 1.5 0 0 0 1.5-1.5v-2.035M12 .75v1.5m-10.5 9H3m.75-7.5 1.1 1.057M22.5 11.25H21m-.75-7.5-1.1 1.057M8.915 17.25h6.17a6.6 6.6 0 0 0 3.665-6A6.873 6.873 0 0 0 12 4.5a6.873 6.873 0 0 0-6.75 6.754 6.6 6.6 0 0 0 3.665 5.996M12 21v2.25m0-9.75v3.75" stroke="#211c84" stroke-width="1.5" stroke-linecap="round" stroke-linejoin="round"/><path d="M9.75 11.25 12 13.5l2.25-2.25" stroke="#211c84" stroke-width="1.5" stroke-linecap="round" stroke-linejoin="round"/></svg>