<svg version="1.1" id="Uploaded to svgrepo.com" xmlns="http://www.w3.org/2000/svg" width="40" height="40" viewBox="0 0 32 32" xml:space="preserve"><style>.open_een{fill:#211c84}</style><path class="open_een" d="M9.636 28.812c-.384 0-.769-.146-1.061-.438l-4.949-4.949a1.5 1.5 0 0 1 0-2.121l4.949-4.95a.5.5 0 0 0 0-.707l-4.949-4.95a1.5 1.5 0 0 1 0-2.121l4.949-4.949a1.503 1.503 0 0 1 2.121 0l3.536 3.535a.5.5 0 0 1-.707.707L9.989 4.333a.5.5 0 0 0-.707 0L4.333 9.282a.5.5 0 0 0 0 .707l4.949 4.95c.283.284.44.661.44 1.061s-.156.777-.439 1.061l-4.949 4.95a.5.5 0 0 0 0 .707l4.949 4.949a.5.5 0 0 0 .707 0l4.95-4.949c.566-.566 1.555-.566 2.121 0l4.95 4.949a.5.5 0 0 0 .707 0l4.949-4.949a.5.5 0 0 0 0-.707l-4.949-4.95c-.283-.283-.439-.66-.439-1.061s.156-.777.439-1.061l4.949-4.95a.5.5 0 0 0 0-.707l-4.949-4.949a.5.5 0 0 0-.707 0l-5.402 5.402a.5.5 0 0 1-.707-.707l5.402-5.402a1.503 1.503 0 0 1 2.121 0l4.949 4.949a1.5 1.5 0 0 1 0 2.121l-4.949 4.95a.5.5 0 0 0 0 .707l4.949 4.95a1.5 1.5 0 0 1 0 2.121l-4.949 4.949a1.503 1.503 0 0 1-2.121 0l-4.95-4.949a.5.5 0 0 0-.707 0l-4.95 4.949a1.5 1.5 0 0 1-1.061.439"/><path class="open_een" d="M9.636 28.812c-.384 0-.769-.146-1.061-.438l-4.949-4.949a1.5 1.5 0 0 1 0-2.121l4.949-4.95a.5.5 0 0 0 0-.707l-4.949-4.95a1.5 1.5 0 0 1 0-2.121l4.949-4.949a1.503 1.503 0 0 1 2.121 0l3.536 3.535a.5.5 0 0 1-.707.707L9.989 4.333a.5.5 0 0 0-.707 0L4.333 9.282a.5.5 0 0 0 0 .707l4.949 4.95c.283.284.44.661.44 1.061s-.156.777-.439 1.061l-4.949 4.95a.5.5 0 0 0 0 .707l4.949 4.949a.5.5 0 0 0 .707 0l4.95-4.949c.566-.566 1.555-.566 2.121 0l4.95 4.949a.5.5 0 0 0 .707 0l4.949-4.949a.5.5 0 0 0 0-.707l-4.949-4.95c-.283-.283-.439-.66-.439-1.061s.156-.777.439-1.061l4.949-4.95a.5.5 0 0 0 0-.707l-4.949-4.949a.5.5 0 0 0-.707 0l-5.402 5.402a.5.5 0 0 1-.707-.707l5.402-5.402a1.503 1.503 0 0 1 2.121 0l4.949 4.949a1.5 1.5 0 0 1 0 2.121l-4.949 4.95a.5.5 0 0 0 0 .707l4.949 4.95a1.5 1.5 0 0 1 0 2.121l-4.949 4.949a1.503 1.503 0 0 1-2.121 0l-4.95-4.949a.5.5 0 0 0-.707 0l-4.95 4.949a1.5 1.5 0 0 1-1.061.439"/></svg>