<svg width="18" height="17" viewBox="0 0 18 17" fill="none" xmlns="http://www.w3.org/2000/svg">
<path d="M4.51236 1.82349C4.51212 2.29496 4.32461 2.74703 3.99106 3.08024C3.65751 3.41345 3.20526 3.60052 2.73379 3.60028C2.26232 3.60004 1.81026 3.41253 1.47704 3.07898C1.14383 2.74544 0.956765 2.29318 0.957001 1.82171C0.957237 1.35024 1.14475 0.898176 1.4783 0.564964C1.81185 0.231751 2.2641 0.0446864 2.73557 0.0449221C3.20704 0.0451578 3.6591 0.232675 3.99232 0.566221C4.32553 0.899767 4.51259 1.35202 4.51236 1.82349ZM4.56569 4.91665H1.01033V16.0449H4.56569V4.91665ZM10.1832 4.91665H6.64557V16.0449H10.1476V10.2052C10.1476 6.95209 14.3874 6.64989 14.3874 10.2052V16.0449H17.8983V8.99642C17.8983 3.51228 11.6231 3.71672 10.1476 6.4099L10.1832 4.91665Z" fill="#BAB2A6"/>
</svg>
