<svg width="17" height="17" viewBox="0 0 17 17" fill="none" xmlns="http://www.w3.org/2000/svg">
<path d="M5.597 0.0449219H12.317C14.877 0.0449219 16.957 2.12492 16.957 4.68492V11.4049C16.957 12.6355 16.4681 13.8157 15.598 14.6859C14.7278 15.5561 13.5476 16.0449 12.317 16.0449H5.597C3.037 16.0449 0.957001 13.9649 0.957001 11.4049V4.68492C0.957001 3.45432 1.44586 2.27412 2.31603 1.40395C3.18619 0.533778 4.3664 0.0449219 5.597 0.0449219ZM5.437 1.64492C4.67318 1.64492 3.94064 1.94835 3.40053 2.48845C2.86043 3.02856 2.557 3.7611 2.557 4.52492V11.5649C2.557 13.1569 3.845 14.4449 5.437 14.4449H12.477C13.2408 14.4449 13.9734 14.1415 14.5135 13.6014C15.0536 13.0613 15.357 12.3287 15.357 11.5649V4.52492C15.357 2.93292 14.069 1.64492 12.477 1.64492H5.437ZM13.157 2.84492C13.4222 2.84492 13.6766 2.95028 13.8641 3.13782C14.0516 3.32535 14.157 3.57971 14.157 3.84492C14.157 4.11014 14.0516 4.36449 13.8641 4.55203C13.6766 4.73956 13.4222 4.84492 13.157 4.84492C12.8918 4.84492 12.6374 4.73956 12.4499 4.55203C12.2624 4.36449 12.157 4.11014 12.157 3.84492C12.157 3.57971 12.2624 3.32535 12.4499 3.13782C12.6374 2.95028 12.8918 2.84492 13.157 2.84492ZM8.957 4.04492C10.0179 4.04492 11.0353 4.46635 11.7854 5.2165C12.5356 5.96664 12.957 6.98406 12.957 8.04492C12.957 9.10579 12.5356 10.1232 11.7854 10.8733C11.0353 11.6235 10.0179 12.0449 8.957 12.0449C7.89613 12.0449 6.87872 11.6235 6.12857 10.8733C5.37843 10.1232 4.957 9.10579 4.957 8.04492C4.957 6.98406 5.37843 5.96664 6.12857 5.2165C6.87872 4.46635 7.89613 4.04492 8.957 4.04492ZM8.957 5.64492C8.32048 5.64492 7.71003 5.89778 7.25994 6.34787C6.80986 6.79795 6.557 7.4084 6.557 8.04492C6.557 8.68144 6.80986 9.29189 7.25994 9.74198C7.71003 10.1921 8.32048 10.4449 8.957 10.4449C9.59352 10.4449 10.204 10.1921 10.6541 9.74198C11.1041 9.29189 11.357 8.68144 11.357 8.04492C11.357 7.4084 11.1041 6.79795 10.6541 6.34787C10.204 5.89778 9.59352 5.64492 8.957 5.64492Z" fill="#BAB2A6"/>
</svg>
