<svg xmlns="http://www.w3.org/2000/svg" version="1.1" xmlns:xlink="http://www.w3.org/1999/xlink" xmlns:svgjs="http://svgjs.dev/svgjs" viewBox="0 0 800 400"><path d="M712.5560302734375,237.6681671142578C698.7204565429688,226.008974609375,649.5246459960938,161.6980674235026,632.7354125976562,170.40359497070312C615.9461791992187,179.10912251790364,637.1479829915364,288.2032779947917,615.695068359375,287.8923645019531C594.2421537272136,287.5814510091146,530.8878796386718,167.52166870117188,508.9685974121094,168.60986328125C487.0493151855469,169.69805786132812,508.51420166015623,294.32586690266925,489.2376708984375,294.17041015625C469.96114013671877,294.01495340983075,416.4125520833333,168.1793650309245,397.7578430175781,167.71299743652344C379.10313395182294,167.2466298421224,400.8908801269531,291.0134576416016,381.6143493652344,291.4798278808594C362.33781860351564,291.9461981201172,307.22272216796875,170.55905436197918,286.5470886230469,170.40359497070312C265.871455078125,170.24813557942707,283.4738519287109,292.91478739420575,262.33184814453125,290.58294677734375C241.18984436035157,288.25110616048175,184.16143676757812,156.6397548421224,164.57398986816406,156.95066833496094C144.98654296875,157.2615818277995,165.8056719970703,291.4439432779948,149.3273468017578,292.3766784667969C132.84902160644532,293.309413655599,87.38415710449219,162.95365458170573,69.50672912597656,162.3318328857422C51.629301147460936,161.71001118977864,50.23019348144531,266.86996073404947,46.18833923339844,288.78924560546875" fill="none" stroke-width="4" stroke="url(&quot;#SvgjsLinearGradient1000&quot;)" stroke-linecap="round" stroke-dasharray="0 0" stroke-opacity="1"></path><defs><linearGradient id="SvgjsLinearGradient1000"><stop stop-color="hsl(230, 55%, 50%)" offset="0"></stop><stop stop-color="hsl(230, 55%, 70%)" offset="1"></stop></linearGradient></defs></svg>